<?xml version="1.0" encoding="UTF-8"?>
<svg id="Layer_1" data-name="Layer 1" xmlns="http://www.w3.org/2000/svg" viewBox="0 0 328.46 121.34">
  <defs>
    <style>
      .cls-1 {
        fill: #fff;
      }
    </style>
  </defs>
  <path class="cls-1" d="M0,96.78V0h39.44c19.94,0,33.51,10.26,33.51,28.17,0,16.47-11.41,26.44-28.75,26.87v.87c6.07,1.88,10.11,5.92,13.43,11.85l16.61,29.04h-11.99l-15.6-27.16c-4.77-8.38-9.82-12.28-22.39-12.28h-14.01v39.44H0v-.02ZM10.27,48.53h30.77c14.88,0,21.52-5.92,21.52-19.65s-6.65-19.5-21.52-19.5H10.27v39.15Z"/>
  <path class="cls-1" d="M95.1,120.33v-8.38h8.09c6.5,0,8.67-1.3,11.27-6.93l4.04-9.25-30.62-70.35h11.27l16.76,39.73,7.51,17.48h.87l7.08-17.48,15.75-39.73h11.27l-34.81,82.77c-4.62,10.83-11.41,13.15-19.21,13.15-3.47,0-7.22-.58-9.25-1.01h-.02Z"/>
  <path class="cls-1" d="M170.83,61.1c0-22.54,10.69-37.12,30.19-37.12,13.72,0,22.54,7.22,25.57,15.02V0h10.4v96.78h-9.25v-13.72h-.58c-3.18,8.96-11.56,15.17-24.99,15.17-20.08,0-31.35-14.59-31.35-37.12h0ZM203.91,89.27c14.16,0,22.68-7.37,22.68-21.96v-12.28c0-14.73-8.52-22.1-22.68-22.1s-22.68,6.36-22.68,28.17,8.52,28.17,22.68,28.17h0Z"/>
  <path class="cls-1" d="M259.7,61.1c0-21.67,13.72-37.12,34.67-37.12s34.09,15.46,34.09,37.12-13.29,37.12-34.09,37.12-34.67-15.46-34.67-37.12ZM318.35,61.1c0-17.77-6.79-27.73-23.98-27.73s-24.41,9.97-24.41,27.73,6.93,27.88,24.41,27.88,23.98-10.11,23.98-27.88Z"/>
</svg>